<svg width="135" height="36" viewBox="0 0 135 36" fill="none" xmlns="http://www.w3.org/2000/svg">
<path d="M3.674 20.238V20.854C3.674 21.3527 3.93067 21.602 4.444 21.602C4.884 21.602 5.25067 21.5213 5.544 21.36V18.698L4.532 18.962C4.16533 19.0647 3.93067 19.1967 3.828 19.358C3.72533 19.5193 3.674 19.8127 3.674 20.238ZM1.1 11.328C1.90667 11.0493 3.058 10.91 4.554 10.91C6.05 10.91 7.12067 11.24 7.766 11.9C8.41133 12.5453 8.734 13.528 8.734 14.848V24H5.632V23.054C5.20667 23.714 4.466 24.044 3.41 24.044C2.354 24.044 1.59133 23.7947 1.122 23.296C0.652667 22.7827 0.418 21.9687 0.418 20.854V20.106C0.418 19.1233 0.630667 18.368 1.056 17.84C1.496 17.312 2.2 16.916 3.168 16.652L5.566 16.036V14.826C5.55133 14.4447 5.44133 14.1807 5.236 14.034C5.03067 13.8727 4.65667 13.792 4.114 13.792C2.89667 13.792 1.892 13.946 1.1 14.254V11.328ZM15.5655 11.02H18.8875V24H15.7635V23.406C15.0448 23.802 14.2235 24 13.2995 24C12.3902 24 11.6935 23.7507 11.2095 23.252C10.7255 22.7533 10.4835 22.0347 10.4835 21.096V11.02H13.8495V20.436C13.8495 20.8173 14.0622 21.008 14.4875 21.008C14.9128 21.008 15.2722 20.92 15.5655 20.744V11.02ZM25.307 21.206C25.7617 21.206 26.1797 21.1033 26.561 20.898V23.846C26.0624 24.0807 25.4097 24.198 24.603 24.198C23.3564 24.198 22.469 23.9047 21.941 23.318C21.413 22.7313 21.149 21.8807 21.149 20.766V13.814H19.983V11.02H21.303L22.315 8.776H24.471V11.02H26.429V13.814H24.471V20.414C24.471 20.942 24.7497 21.206 25.307 21.206ZM32.7724 14.452C32.7724 13.8947 32.4644 13.616 31.8484 13.616C31.2324 13.616 30.9244 13.8947 30.9244 14.452V20.568C30.9244 21.1253 31.2324 21.404 31.8484 21.404C32.4644 21.404 32.7724 21.1253 32.7724 20.568V14.452ZM27.6684 14.342C27.6684 13.2273 28.0131 12.362 28.7024 11.746C29.4064 11.1153 30.4551 10.8 31.8484 10.8C33.2418 10.8 34.2831 11.1153 34.9724 11.746C35.6764 12.362 36.0284 13.2273 36.0284 14.342V20.678C36.0284 21.7927 35.6764 22.6653 34.9724 23.296C34.2831 23.912 33.2418 24.22 31.8484 24.22C30.4551 24.22 29.4064 23.912 28.7024 23.296C28.0131 22.6653 27.6684 21.7927 27.6684 20.678V14.342ZM86.225 11.702C87.1784 11.2033 88.1097 10.954 89.019 10.954C89.943 10.954 90.6544 11.1887 91.153 11.658C91.6664 12.1127 91.923 12.802 91.923 13.726V24H88.557V14.54C88.557 14.188 88.359 14.012 87.963 14.012C87.5817 14.012 87.2297 14.1073 86.907 14.298C86.9217 14.3273 86.929 14.4007 86.929 14.518V24H83.563V14.54C83.563 14.188 83.3724 14.012 82.991 14.012C82.6097 14.012 82.2577 14.1073 81.935 14.298V24H78.613V11.02H81.737V11.592C82.5144 11.1667 83.3284 10.954 84.179 10.954C85.0444 10.954 85.7264 11.2033 86.225 11.702ZM96.4865 20.238V20.854C96.4865 21.3527 96.7432 21.602 97.2565 21.602C97.6965 21.602 98.0632 21.5213 98.3565 21.36V18.698L97.3445 18.962C96.9778 19.0647 96.7432 19.1967 96.6405 19.358C96.5378 19.5193 96.4865 19.8127 96.4865 20.238ZM93.9125 11.328C94.7192 11.0493 95.8705 10.91 97.3665 10.91C98.8625 10.91 99.9332 11.24 100.579 11.9C101.224 12.5453 101.547 13.528 101.547 14.848V24H98.4445V23.054C98.0192 23.714 97.2785 24.044 96.2225 24.044C95.1665 24.044 94.4038 23.7947 93.9345 23.296C93.4652 22.7827 93.2305 21.9687 93.2305 20.854V20.106C93.2305 19.1233 93.4432 18.368 93.8685 17.84C94.3085 17.312 95.0125 16.916 95.9805 16.652L98.3785 16.036V14.826C98.3638 14.4447 98.2538 14.1807 98.0485 14.034C97.8432 13.8727 97.4692 13.792 96.9265 13.792C95.7092 13.792 94.7045 13.946 93.9125 14.254V11.328ZM102.9 14.452C102.9 13.2787 103.252 12.3987 103.956 11.812C104.675 11.2107 105.826 10.91 107.41 10.91C108.495 10.91 109.39 11.02 110.094 11.24V14.166C109.434 13.946 108.708 13.836 107.916 13.836C107.139 13.836 106.64 13.902 106.42 14.034C106.215 14.166 106.112 14.3787 106.112 14.672V14.848C106.112 15.024 106.163 15.178 106.266 15.31C106.383 15.4273 106.625 15.6107 106.992 15.86L108.774 17.048C109.331 17.4147 109.757 17.818 110.05 18.258C110.358 18.698 110.512 19.248 110.512 19.908V20.458C110.512 22.8927 108.913 24.11 105.716 24.11C104.601 24.11 103.648 24.0147 102.856 23.824V20.854C103.545 21.0593 104.308 21.162 105.144 21.162C105.98 21.162 106.53 21.096 106.794 20.964C107.073 20.8173 107.212 20.6047 107.212 20.326V20.128C107.212 19.908 107.139 19.732 106.992 19.6C106.816 19.424 105.973 18.8373 104.462 17.84C103.421 17.136 102.9 16.1973 102.9 15.024V14.452ZM116.379 21.206C116.834 21.206 117.252 21.1033 117.633 20.898V23.846C117.135 24.0807 116.482 24.198 115.675 24.198C114.429 24.198 113.541 23.9047 113.013 23.318C112.485 22.7313 112.221 21.8807 112.221 20.766V13.814H111.055V11.02H112.375L113.387 8.776H115.543V11.02H117.501V13.814H115.543V20.414C115.543 20.942 115.822 21.206 116.379 21.206ZM118.741 20.304V14.342C118.741 13.2273 119.085 12.362 119.775 11.746C120.464 11.1153 121.505 10.8 122.899 10.8C125.583 10.8 126.925 11.9807 126.925 14.342V18.808H121.931V20.04C121.931 20.48 122.048 20.7953 122.283 20.986C122.532 21.162 123.067 21.25 123.889 21.25C124.725 21.25 125.634 21.1033 126.617 20.81V23.714C125.59 23.9927 124.49 24.132 123.317 24.132C120.266 24.132 118.741 22.856 118.741 20.304ZM121.931 16.278H123.867V14.386C123.867 13.8287 123.544 13.55 122.899 13.55C122.253 13.55 121.931 13.8287 121.931 14.386V16.278ZM134.067 10.954H134.441V14.012H133.935C133.113 14.012 132.395 14.1587 131.779 14.452V24H128.457V11.02H131.581V11.9C132.329 11.4453 132.849 11.174 133.143 11.086C133.451 10.998 133.759 10.954 134.067 10.954Z" fill="white"/>
<path d="M40.4218 6.90411C38.5186 21.5556 42.8851 27.6386 57.0243 36C72.0534 27.8964 75.2246 21.3497 73.6268 6.90411C73.6268 6.90411 69.7204 0 57.0243 0C44.3282 0 40.4218 6.90411 40.4218 6.90411Z" fill="url(#paint0_linear_0_1)"/>
<path d="M50.05 14.54C50.05 14.188 49.8227 14.012 49.368 14.012C48.928 14.012 48.576 14.0927 48.312 14.254V20.942H49.192C49.764 20.942 50.05 20.7073 50.05 20.238V14.54ZM44.99 7.566H48.312V11.284C48.9427 11.064 49.698 10.954 50.578 10.954C51.458 10.954 52.1473 11.1887 52.646 11.658C53.1593 12.1127 53.416 12.802 53.416 13.726V20.766C53.416 21.866 53.108 22.68 52.492 23.208C51.8907 23.736 51.0767 24 50.05 24H44.99V7.566ZM56.8236 10.646C55.6063 10.646 54.9976 10.074 54.9976 8.93C54.9976 7.77133 55.6063 7.192 56.8236 7.192C58.0556 7.192 58.6716 7.77133 58.6716 8.93C58.6716 10.074 58.0556 10.646 56.8236 10.646ZM55.1736 11.372H58.4956V24H55.1736V11.372ZM65.3422 13.968H64.6162C63.9269 13.968 63.5822 14.3347 63.5822 15.068V20.502C63.5822 20.8833 63.8022 21.074 64.2422 21.074C64.6822 21.074 65.0489 20.986 65.3422 20.81V13.968ZM65.3202 7.566H68.6642V24H65.4302V23.076C64.9022 23.7507 64.1469 24.088 63.1642 24.088C62.1962 24.088 61.4702 23.824 60.9862 23.296C60.5022 22.768 60.2602 22.0347 60.2602 21.096V14.958C60.2602 13.726 60.5976 12.7653 61.2722 12.076C61.9469 11.372 62.9736 11.02 64.3522 11.02H65.3202V7.566Z" fill="#B02C29"/>
<defs>
<linearGradient id="paint0_linear_0_1" x1="57" y1="0" x2="57" y2="36" gradientUnits="userSpaceOnUse">
<stop stop-color="white"/>
<stop offset="1" stop-color="#CEDCFC"/>
</linearGradient>
</defs>
</svg>
